<svg xmlns="http://www.w3.org/2000/svg" width="1408" height="768" viewBox="0 0 1408 768" version="1.1">
	<path d="M 694.500 70.176 C 681.754 77.389, 641.817 96.804, 627 102.991 C 620.125 105.862, 612.475 109.096, 610 110.177 C 591.604 118.217, 550.617 132.272, 521.500 140.526 C 501.085 146.313, 492.376 148.453, 470.500 153.056 C 462.800 154.676, 455.488 156.234, 454.250 156.520 L 452 157.038 452.005 300.269 C 452.009 437.241, 452.095 444.081, 453.966 456.802 C 457.959 483.939, 466.693 508.854, 481.153 534.349 C 518.711 600.572, 590.149 661.453, 684.546 707.687 L 704.139 717.283 727.319 705.683 C 815.605 661.505, 880.031 608.147, 919.520 546.500 C 933.718 524.335, 943.938 501.048, 950.064 476.906 C 956.466 451.670, 956.281 456.645, 956.183 312.500 C 956.134 240.450, 956.073 175.973, 956.047 169.219 C 956.013 160.280, 955.660 156.842, 954.750 156.587 C 954.063 156.395, 946.525 154.792, 938 153.025 C 864.765 137.846, 786.115 109.127, 719.318 73.172 C 710.968 68.677, 703.993 65.019, 703.818 65.042 C 703.643 65.065, 699.450 67.375, 694.500 70.176 M 687.360 131.826 C 634.127 158.498, 575.201 180.569, 519.047 194.869 L 504.594 198.550 504.729 320.025 C 504.858 436.998, 504.938 441.926, 506.878 453 C 519.481 524.932, 585.083 596.349, 689.355 651.652 C 696.976 655.693, 703.644 659, 704.173 659 C 704.703 659, 711.968 655.341, 720.318 650.869 C 789.783 613.665, 841.570 569.955, 872.733 522.225 C 889.098 497.160, 898.552 473.180, 902.002 447.988 C 902.790 442.227, 903.150 403.126, 903.187 319.163 L 903.239 198.609 888.869 194.927 C 832.212 180.408, 770.018 156.995, 719.360 131.114 L 704.219 123.379 687.360 131.826 M 653 209.551 C 645.762 211.531, 637.787 217.097, 634.003 222.809 C 627.975 231.909, 628 231.603, 628 297.182 C 628 330.082, 627.717 357, 627.372 357 C 627.026 357, 623.739 354.166, 620.067 350.702 C 611.433 342.557, 605.685 339.821, 596 339.248 C 586.777 338.702, 579.380 341.153, 572.819 346.928 C 565.904 353.015, 562.701 359.863, 562.187 369.658 C 561.629 380.292, 562.846 383.730, 572.832 399.738 C 586.836 422.186, 613.262 464.862, 626.247 486 L 638.839 506.500 639.161 526.250 L 639.483 546 715.087 546 L 790.691 546 791.342 533.250 C 791.699 526.237, 791.994 517.948, 791.996 514.829 C 791.999 510.084, 792.914 507.143, 797.594 496.829 C 810.039 469.398, 818.063 450.629, 819.037 446.676 C 819.688 444.030, 819.961 425.381, 819.782 395.782 L 819.500 349.064 809.250 364.021 L 799 378.977 799 411.046 L 799 443.115 792.597 457.308 C 789.076 465.113, 782.919 478.700, 778.917 487.500 L 771.639 503.500 771.069 514.500 L 770.500 525.500 715.500 525.500 L 660.500 525.500 659.937 513.500 C 659.627 506.900, 658.986 500.600, 658.512 499.500 C 657.147 496.333, 638.875 466.411, 602.026 407 C 591.963 390.775, 583.301 376.276, 582.777 374.780 C 581.469 371.042, 583.370 365.707, 587.143 362.533 C 590.442 359.758, 596.405 359.117, 600.316 361.117 C 601.517 361.732, 609.731 369.382, 618.569 378.117 C 634.258 393.625, 634.737 394, 638.895 394 C 642.269 394, 643.761 393.392, 646.077 391.077 L 649 388.154 649 312.459 L 649 236.765 652.882 232.882 C 656.209 229.556, 657.390 229.001, 661.132 229.004 C 666.640 229.008, 671.157 231.705, 673.330 236.283 C 674.830 239.444, 675 245.668, 675 297.401 L 675 355 685 355 L 695 355 695.002 336.250 C 695.003 315.716, 695.676 312.712, 701.171 308.685 C 704.697 306.101, 711.303 306.101, 714.829 308.685 C 720.324 312.712, 720.997 315.716, 720.998 336.250 L 721 355 730.915 355 L 740.829 355 741.504 347.750 C 741.874 343.762, 742.085 340.050, 741.971 339.500 C 741.856 338.950, 741.816 335.643, 741.882 332.151 C 741.988 326.448, 742.308 325.515, 745.027 322.975 C 749.220 319.058, 753.155 318.373, 757.921 320.731 L 761.771 322.636 767.433 314.664 C 770.548 310.279, 772.885 306.144, 772.628 305.474 C 771.853 303.452, 763.398 299.889, 756.625 298.729 C 751.041 297.772, 749.488 297.888, 744.057 299.669 L 737.861 301.701 732.173 296.013 C 724.441 288.281, 717.472 285.599, 707 286.323 C 702.875 286.608, 698.487 287.155, 697.250 287.538 L 695 288.233 695 261.654 C 695 236.983, 694.847 234.666, 692.870 229.382 C 687.229 214.304, 668.919 205.197, 653 209.551 M 863.916 233.943 C 840.995 234.713, 842.470 233.688, 820.500 264.097 C 811.150 277.039, 793.403 301.549, 781.062 318.564 C 768.721 335.579, 750.481 360.750, 740.528 374.500 C 716.266 408.018, 705.888 422, 705.270 422 C 704.987 422, 697.216 414.800, 688 406 C 678.784 397.200, 670.800 390, 670.257 390 C 669.714 390, 663.850 395.760, 657.226 402.801 L 645.182 415.601 655.385 427.051 C 660.997 433.348, 675.172 449.300, 686.885 462.500 C 698.599 475.700, 708.479 486.593, 708.841 486.707 C 709.204 486.821, 715.350 478.294, 722.500 467.759 C 729.650 457.223, 740.225 441.718, 746 433.303 C 751.775 424.887, 769.183 399.439, 784.684 376.751 C 800.186 354.063, 820.153 324.925, 829.056 312 C 845.216 288.539, 852.126 278.454, 872.390 248.750 C 878.300 240.088, 882.542 233.087, 881.818 233.193 C 881.093 233.299, 873.037 233.636, 863.916 233.943" stroke="none" fill="black" fill-rule="evenodd"/>
</svg>